<svg xmlns="http://www.w3.org/2000/svg" xmlns:xlink="http://www.w3.org/1999/xlink" width="24.002" height="24.001" viewBox="0 0 24.002 24.001"><g><image overflow="visible" width="512" height="512" xlink:href="1BD1FA4979950050.jpg" transform="translate(142.981 -251.499)"/></g><path fill-rule="evenodd" clip-rule="evenodd" d="M24 13.64l.002-3.28-3.307-.633c-.208-.796-.52-1.548-.923-2.24l1.872-2.813-2.316-2.318-2.786 1.89c-.692-.407-1.442-.72-2.237-.93L13.64 0h-3.277l-.635 3.307c-.795.207-1.547.518-2.24.922L4.675 2.356l-2.32 2.315 1.89 2.787c-.406.69-.72 1.44-.93 2.236l-3.312.664L0 13.64l3.308.634c.208.795.52 1.546.922 2.24l-1.87 2.81 2.315 2.32 2.786-1.89c.693.407 1.443.72 2.238.932l.665 3.312L13.64 24l.635-3.307c.795-.208 1.547-.52 2.24-.923l2.812 1.872 2.32-2.316-1.89-2.786c.406-.692.72-1.442.93-2.237L24 13.64zM12 17c-2.76 0-5-2.238-5-5 0-2.76 2.24-5 5-5 2.763 0 5 2.24 5 5 0 2.762-2.237 5-5 5z"/></svg>