<svg xmlns="http://www.w3.org/2000/svg" width="32" height="32" viewBox="-3 -3 32 32" enable-background="new -3 -3 32 32"><radialGradient id="a" cx="7.313" cy="7.313" r="18.211" gradientUnits="userSpaceOnUse"><stop offset="0" stop-color="#66AFE9"/><stop offset=".034" stop-color="#63ACE6"/><stop offset=".453" stop-color="#3D89C6"/><stop offset=".789" stop-color="#2674B2"/><stop offset="1" stop-color="#1D6CAB"/></radialGradient><path fill="url(#a)" d="M21 17l-1 1-2-2-.055.055C19.23 14.372 20 12.28 20 10c0-5.523-4.48-10-10-10C4.478 0 0 4.477 0 10s4.478 10 10 10c2.278 0 4.372-.77 6.055-2.055L16 18l2 2-1 1 6 6 4-4-6-6zm-11-.006c-3.862 0-6.994-3.132-6.994-6.994S6.138 3.006 10 3.006 16.994 6.138 16.994 10 13.862 16.994 10 16.994z"/></svg>