<?xml version="1.0" encoding="utf-8"?>
<!-- Generator: Adobe Illustrator 16.0.0, SVG Export Plug-In . SVG Version: 6.00 Build 0)  -->
<!DOCTYPE svg PUBLIC "-//W3C//DTD SVG 1.1//EN" "http://www.w3.org/Graphics/SVG/1.1/DTD/svg11.dtd">
<svg version="1.1" id="Layer_1" xmlns="http://www.w3.org/2000/svg" xmlns:xlink="http://www.w3.org/1999/xlink" x="0px" y="0px"
	 width="27px" height="27px" viewBox="0 0 27 27" enable-background="new 0 0 27 27" xml:space="preserve">
<g>
	<g>
		<path d="M21,17l-1,1l-2-2l-0.055,0.055C19.229,14.372,20,12.279,20,10c0-5.523-4.479-10-10-10C4.478,0,0,4.477,0,10
			c0,5.523,4.478,10,10,10c2.278,0,4.372-0.771,6.055-2.055L16,18l2,2l-1,1l6,6l4-4L21,17z M10,16.994
			c-3.862,0-6.994-3.132-6.994-6.994S6.138,3.006,10,3.006S16.994,6.138,16.994,10S13.862,16.994,10,16.994z"/>
	</g>
</g>
</svg>
