<svg xmlns="http://www.w3.org/2000/svg" width="20.01" height="19.012" viewBox="8.995 0.994 20.01 19.012" enable-background="new 8.995 0.994 20.01 19.012"><path fill-rule="evenodd" clip-rule="evenodd" d="M26.896 10.727c0-1.186.916-2.16 2.108-2.328-.225-.998-.612-1.935-1.128-2.793-.97.774-2.41.736-3.32-.135-.937-.896-.957-2.327-.074-3.254-.912-.554-1.92-.97-2.997-1.227-.008 1.3-1.11 2.35-2.47 2.35s-2.46-1.05-2.47-2.348c-1.088.26-2.107.68-3.026 1.243l.002.002c.962.922.964 2.417 0 3.34-.935.89-2.427.914-3.397.074-.525.886-.914 1.85-1.13 2.88 1.28.087 2.295 1.096 2.295 2.344 0 1.18-.904 2.148-2.086 2.326.29.952.724 1.847 1.284 2.655.962-.633 2.287-.545 3.143.273.814.777.936 1.953.38 2.857.86.465 1.797.81 2.79 1.02.284-1.002 1.233-1.744 2.372-1.744 1.113 0 2.045.71 2.355 1.676.98-.236 1.9-.605 2.744-1.09-.53-.9-.403-2.057.397-2.822.813-.777 2.05-.893 2.998-.357.53-.803.938-1.686 1.206-2.625-1.125-.22-1.973-1.172-1.973-2.313zM19 15c-2.21 0-4-1.79-4-4s1.79-4 4-4 4 1.79 4 4c0 2.208-1.79 4-4 4z"/></svg>