<?xml version="1.0" encoding="utf-8"?>
<!-- Generator: Adobe Illustrator 16.0.0, SVG Export Plug-In . SVG Version: 6.00 Build 0)  -->
<!DOCTYPE svg PUBLIC "-//W3C//DTD SVG 1.1//EN" "http://www.w3.org/Graphics/SVG/1.1/DTD/svg11.dtd">
<svg version="1.1" id="Layer_1" xmlns="http://www.w3.org/2000/svg" xmlns:xlink="http://www.w3.org/1999/xlink" x="0px" y="0px"
	 width="24.002px" height="24.001px" viewBox="0 0 24.002 24.001" enable-background="new 0 0 24.002 24.001" xml:space="preserve">
<g id="NF3VLM_1_">
	
		<image overflow="visible" width="512" height="512" id="NF3VLM_2_" xlink:href="1BD1FA4979950050.jpg"  transform="matrix(1 0 0 1 142.9814 -251.4985)">
	</image>
</g>
<g>
	<g>
		<path fill-rule="evenodd" clip-rule="evenodd" d="M24,13.639l0.002-3.278l-3.307-0.634c-0.208-0.796-0.519-1.548-0.923-2.241
			l1.872-2.812l-2.316-2.318l-2.786,1.889c-0.692-0.406-1.442-0.72-2.237-0.93L13.64,0h-3.277L9.728,3.307
			C8.933,3.514,8.181,3.825,7.487,4.229L4.676,2.357l-2.32,2.315l1.89,2.787c-0.406,0.692-0.72,1.442-0.93,2.237l-3.312,0.664
			L0,13.639l3.308,0.635c0.208,0.795,0.519,1.546,0.922,2.24l-1.871,2.811l2.316,2.319l2.786-1.889
			c0.692,0.406,1.442,0.72,2.237,0.931l0.665,3.312l3.277,0.003l0.635-3.308c0.795-0.208,1.547-0.519,2.24-0.923l2.812,1.872
			l2.319-2.316l-1.889-2.786c0.406-0.692,0.72-1.442,0.931-2.237L24,13.639z M12.001,17c-2.761,0-5-2.238-5-5c0-2.761,2.239-5,5-5
			c2.762,0,5,2.239,5,5C17.001,14.762,14.763,17,12.001,17z"/>
	</g>
</g>
</svg>
