<svg xmlns="http://www.w3.org/2000/svg" width="20.01" height="19.012" viewBox="8.995 0.994 20.01 19.012" enable-background="new 8.995 0.994 20.01 19.012"><path fill-rule="evenodd" clip-rule="evenodd" d="M26.896 10.727c0-1.186.916-2.16 2.108-2.328-.225-.997-.612-1.934-1.128-2.792-.97.774-2.41.736-3.32-.135-.937-.896-.957-2.327-.074-3.254-.912-.554-1.92-.97-2.997-1.227-.008 1.298-1.11 2.348-2.47 2.348s-2.46-1.048-2.47-2.347c-1.088.26-2.107.68-3.026 1.243 0 0 .002 0 .003.002.962.922.964 2.417 0 3.34-.935.89-2.427.914-3.397.074-.525.885-.914 1.85-1.13 2.878 1.28.088 2.295 1.097 2.295 2.345 0 1.18-.904 2.148-2.086 2.326.29.952.724 1.847 1.284 2.655.962-.633 2.287-.545 3.143.273.813.777.935 1.953.38 2.857.86.465 1.796.81 2.788 1.02.285-1.002 1.234-1.744 2.373-1.744 1.113 0 2.045.708 2.355 1.675.98-.236 1.9-.605 2.744-1.09-.53-.9-.404-2.057.396-2.822.813-.777 2.05-.893 2.998-.357.53-.803.938-1.686 1.206-2.625-1.126-.22-1.974-1.172-1.974-2.313zM19 15c-2.21 0-4-1.79-4-4s1.79-4 4-4 4 1.79 4 4c0 2.208-1.79 4-4 4z"/></svg>